<svg xmlns="http://www.w3.org/2000/svg" xmlns:xlink="http://www.w3.org/1999/xlink" aria-hidden="true" role="img" class="iconify iconify--logos" width="31.88" height="32" preserveAspectRatio="xMidYMid meet" viewBox="0 0 256 257"><defs><linearGradient id="IconifyId1813088fe1fbc01fb466" x1="-.828%" x2="57.636%" y1="-7.652%" y2="78.411%"><stop offset="0%" stop-color="#FF00FF"></stop><stop offset="100%" stop-color="#FF8C00"></stop></linearGradient></defs><path fill="url(#IconifyId1813088fe1fbc01fb466)" d="M255.153 37.938L134.897 252.976c-2.883 5.084-7.769 8.172-13.637 8.172a15.456 15.456 0 0 1-4.205-.667c-2.25-.72-4.605-1.920-5.999-5.271L0 37.938c-.72-2.016.168-4.410 2.016-5.130C3.615 32.132 8.93 32.972 9.654 34.988l118.214 224.733c.604 1.692 1.764 2.752 3.456 2.752h.276c1.692 0 2.852-1.092 3.456-2.772L246.667 37.812c.72-2.016 4.89-3.132 7.1-1.872 2.016.720 2.771 2.856 2.016 5.210l-.027-.05Z"></path></svg>
